<svg xmlns="http://www.w3.org/2000/svg" width="1180.8622086012908" height="496" viewBox="0 0 295.2155521503227 124" role="img" aria-label="24/7"  preserveAspectRatio="xMidYMid meet"><defs><linearGradient id="hero-led-grad" x1="0" y1="0" x2="0.35" y2="1"><stop offset="0%" stop-color="#7df3ff"></stop><stop offset="55%" stop-color="#22dff5"></stop><stop offset="100%" stop-color="#3183fb"></stop></linearGradient></defs><rect width="295.2155521503227" height="124" fill="#0a1628"/><g<g transform="translate(32.21555215032272, 10) skewX(-11)"><g transform="translate(0, 0)"><polygon points="4,6.4 10.4,0 47.6,0 54,6.4 47.6,12.8 10.4,12.8"  fill="url(#hero-led-grad)" ></polygon><polygon points="51.6,4 58,10.4 58,41.6 51.6,48 45.2,41.6 45.2,10.4"  fill="url(#hero-led-grad)" ></polygon><polygon points="51.6,56 58,62.4 58,93.6 51.6,100 45.2,93.6 45.2,62.4" ></polygon><polygon points="4,97.6 10.4,91.19999999999999 47.6,91.19999999999999 54,97.6 47.6,104 10.4,104"  fill="url(#hero-led-grad)" ></polygon><polygon points="6.4,56 12.8,62.4 12.8,93.6 6.4,100 0,93.6 0,62.4"  fill="url(#hero-led-grad)" ></polygon><polygon points="6.4,4 12.8,10.4 12.8,41.6 6.4,48 0,41.6 0,10.4" ></polygon><polygon points="4,52 10.4,45.6 47.6,45.6 54,52 47.6,58.4 10.4,58.4"  fill="url(#hero-led-grad)" ></polygon></g><g transform="translate(74, 0)"><polygon points="4,6.4 10.4,0 47.6,0 54,6.4 47.6,12.8 10.4,12.8" ></polygon><polygon points="51.6,4 58,10.4 58,41.6 51.6,48 45.2,41.6 45.2,10.4"  fill="url(#hero-led-grad)" ></polygon><polygon points="51.6,56 58,62.4 58,93.6 51.6,100 45.2,93.6 45.2,62.4"  fill="url(#hero-led-grad)" ></polygon><polygon points="4,97.6 10.4,91.19999999999999 47.6,91.19999999999999 54,97.6 47.6,104 10.4,104" ></polygon><polygon points="6.4,56 12.8,62.4 12.8,93.6 6.4,100 0,93.6 0,62.4" ></polygon><polygon points="6.4,4 12.8,10.4 12.8,41.6 6.4,48 0,41.6 0,10.4"  fill="url(#hero-led-grad)" ></polygon><polygon points="4,52 10.4,45.6 47.6,45.6 54,52 47.6,58.4 10.4,58.4"  fill="url(#hero-led-grad)" ></polygon></g><g transform="translate(148, 0)"><polygon points="16,0 24,0 28.24,4.94 13.76,99.06 8,104 0,104" ></polygon><polygon points="16,0 24,0 28.24,4.94 13.76,99.06 8,104 0,104"  fill="url(#hero-led-grad)" ></polygon></g><g transform="translate(193, 0)"><polygon points="4,6.4 10.4,0 47.6,0 54,6.4 47.6,12.8 10.4,12.8"  fill="url(#hero-led-grad)" ></polygon><polygon points="51.6,4 58,10.4 58,41.6 51.6,48 45.2,41.6 45.2,10.4"  fill="url(#hero-led-grad)" ></polygon><polygon points="51.6,56 58,62.4 58,93.6 51.6,100 45.2,93.6 45.2,62.4"  fill="url(#hero-led-grad)" ></polygon><polygon points="4,97.6 10.4,91.19999999999999 47.6,91.19999999999999 54,97.6 47.6,104 10.4,104" ></polygon><polygon points="6.4,56 12.8,62.4 12.8,93.6 6.4,100 0,93.6 0,62.4" ></polygon><polygon points="6.4,4 12.8,10.4 12.8,41.6 6.4,48 0,41.6 0,10.4" ></polygon><polygon points="4,52 10.4,45.6 47.6,45.6 54,52 47.6,58.4 10.4,58.4" ></polygon></g></g></svg>